<?xml version="1.0" encoding="utf-8"?>
<!-- Generator: Adobe Illustrator 16.0.3, SVG Export Plug-In . SVG Version: 6.00 Build 0)  -->
<!DOCTYPE svg PUBLIC "-//W3C//DTD SVG 1.1//EN" "http://www.w3.org/Graphics/SVG/1.1/DTD/svg11.dtd">
<svg version="1.1" id="Capa_1" xmlns="http://www.w3.org/2000/svg" xmlns:xlink="http://www.w3.org/1999/xlink" x="0px" y="0px"
	 width="640px" height="640px" viewBox="0 0 640 640" enable-background="new 0 0 640 640" xml:space="preserve">
<path fill="#0D47A1" d="M257.112,2.386c-0.34,1.19-0.85,12.748-1.19,25.836l-0.85,23.795l-6.288,5.949
	c-3.57,3.229-8.329,7.478-10.539,9.349c-4.758,3.739-15.297,18.187-18.187,24.645c-7.309,16.997-10.708,31.104-10.708,45.551
	c0,6.63-0.849,8.329-7.648,14.958c-4.249,4.249-8.158,9.688-8.838,12.237c-0.51,2.549-4.08,8.329-7.649,12.918
	c-14.278,18.017-19.716,35.523-21.246,68.837c-1.019,23.456-1.19,24.645-5.608,28.895c-7.479,7.479-10.878,16.657-8.669,23.795
	c1.021,3.399,2.89,7.648,4.25,9.518c2.38,3.229,2.549,3.06,3.57-3.569c2.209-13.428,13.088-19.886,28.555-16.998
	c6.968,1.361,14.787,8.499,14.957,13.598c0.34,6.46,2.89-4.079,3.059-12.578c0.171-9.518-2.549-15.127-9.177-18.696
	c-6.97-3.909-8.499-12.748-6.12-36.543c1.871-19.887,4.42-28.895,9.688-35.864c2.72-3.909,4.08-4.25,9.52-3.229
	c6.118,1.19,6.118,1.36,7.987,12.408c4.08,23.795,5.78,32.125,8.838,44.532c4.93,20.056,10.708,37.393,19.038,56.09
	c1.019,2.379,5.949,10.368,10.707,18.017c20.056,30.934,46.911,46.062,73.597,41.132c8.669-1.529,22.605-7.138,27.535-11.218
	c21.927-17.507,32.634-33.654,45.382-67.477c6.799-17.847,14.957-52.011,17.337-72.237c1.188-8.839,2.55-17.338,3.229-18.697
	c0.849-1.53,4.248-2.72,8.838-3.059c7.479-0.511,7.649-0.341,11.389,7.478c8.498,17.506,14.447,44.531,13.598,62.208
	c-0.51,10.198-0.681,10.708-5.1,11.217c-2.55,0.34-6.97,2.719-9.689,5.439c-8.157,8.329-8.497,20.567-0.849,29.915
	c3.74,4.759,3.908,4.759,4.08,1.189c0-7.138,5.438-17.506,10.027-19.716c2.38-1.19,7.647-1.87,11.728-1.53
	c6.119,0.51,7.818,1.36,10.539,5.949c2.037,3.059,3.399,8.498,3.399,12.578c0,4.08,0.51,7.308,1.02,7.308
	c0.509,0,2.718-2.039,4.758-4.589c10.029-12.578,10.369-19.376,1.7-28.214c-4.928-4.76-6.29-7.818-6.8-13.428
	c-0.678-8.838-2.89-32.463-3.228-33.653c-3.061-13.768-4.761-20.226-5.949-22.946c-6.12-15.467-8.16-19.717-12.918-27.195
	c-3.06-4.759-7.818-10.878-10.708-13.598c-3.06-2.889-6.8-7.818-8.668-11.388c-1.87-3.399-5.439-7.817-7.989-9.857
	c-4.42-3.569-4.759-4.758-5.779-21.076c-1.19-17.676-3.228-26.515-8.668-35.863c-1.529-2.89-4.249-7.649-5.779-10.538
	c-2.719-5.609-18.016-22.606-20.056-22.606c-0.681,0-3.23-1.87-5.78-4.249c-5.099-4.759-23.455-14.107-32.632-16.657
	c-3.23-0.85-12.409-2.72-20.396-4.249c-16.318-2.89-33.825-1.36-50.991,4.758c-5.1,1.87-12.238,3.229-15.638,3.4h-6.289
	l1.021-12.408c0.51-6.629,1.529-13.087,2.209-13.938c1.869-2.549,0-15.807-2.38-16.657C258.471,0.856,257.283,1.366,257.112,2.386z
	 M345.326,53.717c18.356,4.929,24.814,7.648,35.693,14.957c9.518,6.46,9.857,6.969,16.997,17.337
	c5.099,7.309,5.949,10.198,6.459,20.566c0.508,9.519,0,13.428-2.722,18.697c-12.748,24.816-41.131,39.603-81.073,42.322
	c-13.088,0.85-17.678,0.51-31.785-3.229c-18.528-4.759-27.195-8.668-39.603-18.187c-8.669-6.628-11.048-9.518-16.487-20.566
	c-4.419-9.178-4.08-26.175,0.681-35.353C250.822,57.966,300.284,41.819,345.326,53.717z"/>
<path fill="#0D47A1" d="M263.232,85.84c-2.721,1.191-7.14,4.25-9.86,6.799c-4.928,4.76-9.348,15.977-6.968,18.357
	c0.85,0.85,4.759-0.17,8.668-2.21c5.949-2.889,10.539-3.4,23.457-3.4c8.837,0.171,16.826,0.511,17.676,1.19
	c3.399,2.04,3.399-4.759-0.169-10.368C289.406,85.671,274.448,80.912,263.232,85.84z"/>
<path fill="#0D47A1" d="M348.895,85.84c-7.309,2.55-17.166,13.768-17.166,19.376c0,3.23,0.51,3.91,3.059,2.72
	c1.529-0.85,10.198-1.7,19.376-2.039c13.938-0.511,17.337,0,23.286,2.889c8.329,4.419,8.669,4.419,8.669,0.17
	c0-9.178-7.989-19.206-18.527-22.946C358.923,82.952,356.713,82.952,348.895,85.84z"/>
<path fill="#0D47A1" d="M270.54,442.945c-15.978,2.89-24.816,6.458-21.756,8.839c7.478,5.607,29.234,8.157,70.197,8.157
	c39.263,0,61.358-2.55,70.366-8.328c3.57-2.379-6.799-5.949-25.154-8.838C344.305,439.887,288.386,439.887,270.54,442.945z"/>
<path fill="#B71C1C" d="M628.493,602.886c-1.869-12.407-13.597-20.906-34.163-24.815c-18.696-3.398-17.847-3.06-17.847-8.498
	c0-4.08,0.851-5.269,4.418-6.119c5.949-1.53,26.855,0.51,27.536,2.72c0.34,0.85,1.527,1.699,2.55,1.699
	c0.906,0,2.755,0.946,4.349,2.353c0.542-3.087,1.716-6.19,2.529-8.524c1.446-4.153,3.347-8.311,4.867-12.538
	c-2.362-1.365-5.46-2.691-8.006-3.386c-3.739-1.19-8.499-2.72-10.71-3.569c-5.269-2.04-27.705-1.87-30.933,0.17
	c-1.36,0.85-4.249,1.699-6.46,1.699c-4.929,0-10.028,2.891-15.977,9.18c-5.099,5.608-7.479,15.975-5.779,25.324
	c1.19,6.799,9.857,16.146,16.146,17.677c2.381,0.51,5.271,1.529,6.12,2.21c1.02,0.68,5.1,1.699,9.349,2.209
	c4.25,0.681,10.537,1.87,14.107,2.89c5.949,1.7,6.459,2.381,5.949,7.308l-0.51,5.439l-12.749,0.51
	c-9.518,0.341-14.107-0.169-18.696-2.549c-3.229-1.7-6.119-3.568-6.46-4.418c-1.529-3.23-5.438-0.51-10.367,7.477
	c-1.759,2.895-2.948,5.145-3.602,6.882c0.34,0.142,0.651,0.316,0.93,0.523c0.464,0.225,0.9,0.514,1.281,0.895
	c0.111,0.11,0.223,0.222,0.334,0.333c0.135,0.135,0.238,0.289,0.354,0.436c0.023,0.02,0.049,0.035,0.071,0.055
	c0.261,0.2,0.505,0.418,0.711,0.666c0.442,0.234,0.852,0.525,1.203,0.881c0.106,0.052,0.203,0.114,0.304,0.173
	c0.052-0.002,0.102-0.008,0.154-0.008c1.646,0,2.861,0.661,3.666,1.633c0.267,0.208,0.501,0.446,0.71,0.704
	c0.094,0.075,0.176,0.16,0.263,0.242c0.732,0.236,1.334,0.635,1.814,1.134c0.688,0.377,1.245,0.876,1.627,1.48
	c0.577,0.192,1.115,0.404,1.566,0.63c1.529,0.85,9.178,2.55,16.998,3.569c11.048,1.699,15.637,1.699,22.095,0
	C622.204,631.27,631.213,621.072,628.493,602.886z"/>
<path fill="#B71C1C" d="M10.488,552.406v10.197l15.807,0.51l15.638,0.51v36.543v36.543l14.957,0.51l14.788,0.51v-35.353
	c0-19.376,0.679-36.203,1.36-37.394c0.849-1.19,6.798-2.209,15.637-2.55l14.447-0.51v-9.349v-9.348l-46.231-0.51l-46.401-0.34
	V552.406z"/>
<path fill="#B71C1C" d="M203.742,547.816c-1.19,3.06-4.42,12.407-6.97,20.906c-2.549,8.328-5.609,17.506-6.968,20.395
	c-1.19,2.72-3.059,8.499-4.249,12.749c-1.19,4.249-4.08,13.087-6.289,19.716c-2.04,6.628-3.91,12.918-3.91,13.938
	c0,2.209,23.286,2.89,26.515,0.68c1.021-0.68,3.059-4.588,4.42-8.838l2.549-7.648h15.807h15.977l1.36,6.629
	c2.209,10.367,3.569,11.218,18.526,11.218c7.479,0,13.428-0.341,13.428-0.851c0-1.359-10.198-33.653-11.898-37.393
	c-0.68-1.869-2.72-7.989-4.249-13.598c-1.701-5.608-3.571-10.879-4.421-11.729c-0.85-1.02-1.528-3.737-1.528-6.287
	s-0.681-5.271-1.7-5.78c-0.85-0.51-1.7-2.719-1.7-4.759s-1.53-6.288-3.399-9.348l-3.399-5.439h-17.847h-17.847L203.742,547.816z"/>
<path fill="#B71C1C" d="M363.511,545.096c-0.679,2.55-0.338,81.584,0.341,90.424c0.171,1.699,3.739,2.04,14.277,1.699l13.938-0.51
	l0.85-16.146l0.85-16.147h6.629c4.758,0,7.138,0.851,8.498,3.4c1.021,1.868,2.209,3.738,2.72,4.248
	c0.51,0.51,2.379,4.08,4.079,7.989c1.87,4.079,3.908,7.309,4.758,7.309c0.682,0,1.362,1.53,1.362,3.398c0,4.76,6.287,6.8,21.414,6.8
	c12.579,0,14.788-1.19,10.029-5.1c-1.36-1.19-2.55-2.889-2.55-3.74c0-0.85-1.87-4.077-4.249-7.138c-2.38-3.06-4.25-6.119-4.25-6.8
	c0-0.679-1.188-2.379-2.548-3.737c-4.59-4.59-3.063-10.879,3.909-16.828c14.955-12.917,11.897-38.243-5.949-48.101
	c-3.74-2.04-12.579-2.72-38.924-3.399C366.233,542.036,364.362,542.207,363.511,545.096z M417.733,568.042
	c3.058,2.55,3.058,10.708,0,13.258c-1.53,1.189-6.459,1.869-12.407,1.529l-9.858-0.51l-0.511-6.63
	c-0.851-10.707,0.17-11.897,10.878-10.707C410.933,565.492,416.372,566.853,417.733,568.042z"/>
<line fill="#B71C1C" stroke="#B71C1C" stroke-miterlimit="10" x1="11.631" y1="508.5" x2="630.656" y2="508.5"/>
<polygon fill="#FFFFFF" points="215.315,596.285 224.648,564.952 233.982,596.285 "/>
</svg>
