<?xml version="1.0" encoding="utf-8"?>
<!-- Generator: Adobe Illustrator 16.0.3, SVG Export Plug-In . SVG Version: 6.00 Build 0)  -->
<!DOCTYPE svg PUBLIC "-//W3C//DTD SVG 1.1//EN" "http://www.w3.org/Graphics/SVG/1.1/DTD/svg11.dtd">
<svg version="1.1" id="Capa_1" xmlns="http://www.w3.org/2000/svg" xmlns:xlink="http://www.w3.org/1999/xlink" x="0px" y="0px"
	 width="640px" height="640px" viewBox="0 0 640 640" enable-background="new 0 0 640 640" xml:space="preserve">
<circle fill="#FFFFFF" cx="320" cy="320" r="320"/>
<path fill="#1565c0" d="M247.314,60.997c-0.386,1.351-0.964,14.471-1.351,29.327l-0.965,27.011l-7.137,6.752
	c-4.053,3.666-9.455,8.489-11.963,10.612c-5.401,4.245-17.364,20.645-20.644,27.976c-8.296,19.294-12.155,35.308-12.155,51.707
	c0,7.526-0.964,9.455-8.682,16.979c-4.823,4.823-9.261,10.997-10.033,13.891c-0.579,2.894-4.631,9.455-8.683,14.664
	c-16.208,20.452-22.38,40.324-24.117,78.142c-1.156,26.624-1.351,27.975-6.367,32.799c-8.49,8.489-12.348,18.907-9.841,27.011
	c1.159,3.858,3.28,8.682,4.824,10.804c2.702,3.667,2.894,3.475,4.052-4.051c2.508-15.242,14.857-22.574,32.414-19.295
	c7.91,1.545,16.786,9.647,16.979,15.436c0.386,7.334,3.28-4.63,3.472-14.277c0.195-10.805-2.894-17.171-10.417-21.223
	c-7.913-4.437-9.647-14.471-6.947-41.481c2.123-22.574,5.017-32.8,10.998-40.71c3.088-4.438,4.632-4.824,10.806-3.666
	c6.945,1.351,6.945,1.543,9.066,14.084c4.632,27.011,6.561,36.467,10.033,50.549c5.596,22.768,12.155,42.447,21.61,63.672
	c1.156,2.7,6.752,11.769,12.154,20.451c22.767,35.114,53.25,52.286,83.542,46.69c9.841-1.736,25.661-8.103,31.257-12.733
	c24.89-19.873,37.044-38.203,51.515-76.596c7.718-20.26,16.979-59.041,19.68-82c1.35-10.033,2.895-19.681,3.666-21.224
	c0.964-1.736,4.822-3.087,10.032-3.472c8.49-0.581,8.684-0.387,12.928,8.489c9.646,19.872,16.399,50.549,15.436,70.615
	c-0.579,11.577-0.772,12.156-5.789,12.733c-2.895,0.388-7.911,3.088-10.999,6.174c-9.26,9.455-9.646,23.347-0.963,33.959
	c4.245,5.401,4.437,5.401,4.631,1.351c0-8.104,6.173-19.873,11.383-22.382c2.701-1.351,8.681-2.122,13.313-1.736
	c6.946,0.579,8.875,1.544,11.963,6.754c2.313,3.472,3.859,9.646,3.859,14.276s0.578,8.295,1.157,8.295
	c0.577,0,3.085-2.314,5.4-5.207c11.385-14.278,11.771-21.996,1.931-32.028c-5.594-5.403-7.141-8.875-7.719-15.242
	c-0.77-10.032-3.28-36.852-3.664-38.202c-3.474-15.628-5.404-22.959-6.753-26.047c-6.947-17.557-9.263-22.381-14.664-30.87
	c-3.473-5.402-8.875-12.349-12.155-15.436c-3.473-3.279-7.719-8.875-9.839-12.927c-2.123-3.858-6.175-8.874-9.069-11.189
	c-5.017-4.052-5.401-5.401-6.561-23.924c-1.351-20.065-3.663-30.099-9.839-40.71c-1.736-3.28-4.823-8.683-6.561-11.962
	c-3.086-6.367-20.45-25.661-22.766-25.661c-0.772,0-3.667-2.123-6.562-4.823c-5.788-5.402-26.625-16.014-37.042-18.908
	c-3.667-0.964-14.086-3.087-23.153-4.823c-18.523-3.281-38.396-1.544-57.881,5.401c-5.789,2.123-13.892,3.666-17.751,3.859h-7.139
	l1.159-14.084c0.579-7.525,1.736-14.856,2.508-15.821c2.122-2.894,0-17.943-2.701-18.909
	C248.857,59.261,247.509,59.839,247.314,60.997z M347.45,119.265c20.837,5.595,28.168,8.682,40.518,16.978
	c10.804,7.333,11.189,7.911,19.294,19.68c5.787,8.296,6.753,11.576,7.332,23.346c0.576,10.805,0,15.242-3.09,21.223
	c-14.471,28.17-46.689,44.955-92.029,48.042c-14.857,0.965-20.067,0.579-36.081-3.666c-21.032-5.402-30.87-9.84-44.955-20.645
	c-9.84-7.524-12.542-10.804-18.715-23.346c-5.016-10.418-4.631-29.712,0.772-40.13C240.175,124.088,296.322,105.759,347.45,119.265z
	"/>
<path fill="#1565c0" d="M254.261,155.729c-3.088,1.352-8.104,4.824-11.192,7.718c-5.594,5.403-10.611,18.136-7.91,20.838
	c0.965,0.964,5.402-0.193,9.839-2.509c6.753-3.279,11.963-3.859,26.627-3.859c10.032,0.194,19.101,0.58,20.065,1.351
	c3.859,2.315,3.859-5.403-0.192-11.77C283.973,155.537,266.994,150.135,254.261,155.729z"/>
<path fill="#1565c0" d="M351.501,155.729c-8.296,2.895-19.486,15.629-19.486,21.995c0,3.667,0.579,4.438,3.473,3.087
	c1.735-0.965,11.576-1.929,21.994-2.314c15.821-0.58,19.68,0,26.434,3.279c9.454,5.017,9.84,5.017,9.84,0.193
	c0-10.418-9.068-21.801-21.031-26.047C362.885,152.451,360.376,152.451,351.501,155.729z"/>
<path fill="#1565c0" d="M262.557,531.228c-18.137,3.28-28.17,7.331-24.696,10.033c8.489,6.365,33.185,9.26,79.683,9.26
	c44.569,0,69.65-2.895,79.876-9.454c4.053-2.7-7.718-6.753-28.554-10.032C346.291,527.756,282.816,527.756,262.557,531.228z"/>
</svg>
